<?xml version="1.0" standalone="no"?><!DOCTYPE svg PUBLIC "-//W3C//DTD SVG 1.1//EN" "http://www.w3.org/Graphics/SVG/1.1/DTD/svg11.dtd"><svg t="1621432482651" class="icon" viewBox="0 0 1024 1024" version="1.1" xmlns="http://www.w3.org/2000/svg" p-id="1558" xmlns:xlink="http://www.w3.org/1999/xlink" width="128" height="128"><defs><style type="text/css"></style></defs><path d="M511.951499 1023.999903A511.951499 511.951499 0 1 1 939.982877 793.074213a27.424243 27.424243 0 0 1-45.933184-30.137596 456.32777 456.32777 0 1 0-136.34597 134.601672 27.424243 27.424243 0 1 1 29.071635 46.2239 510.110295 510.110295 0 0 1-274.823859 80.237714z" p-id="1559" fill="#ee0a24"></path><path d="M385.489885 707.409794A27.424243 27.424243 0 0 1 358.55017 679.985551V344.014352a27.521148 27.521148 0 0 1 54.94539 0v335.971199A27.521148 27.521148 0 0 1 385.489885 707.409794zM637.444058 707.409794A27.424243 27.424243 0 0 1 610.504343 679.985551V344.014352a27.521148 27.521148 0 0 1 54.945391 0v335.971199A27.521148 27.521148 0 0 1 637.444058 707.409794z" p-id="1560" fill="#ee0a24"></path></svg>